<svg xmlns="http://www.w3.org/2000/svg" viewBox="0 0 1923.5 1081"><defs><style>.cls-1,.cls-10,.cls-16{fill:#fdfeff;}.cls-1,.cls-10,.cls-13,.cls-15,.cls-16,.cls-17,.cls-18,.cls-19,.cls-2,.cls-20,.cls-21,.cls-22,.cls-23,.cls-24,.cls-25,.cls-26,.cls-27,.cls-28,.cls-29,.cls-30,.cls-31,.cls-32,.cls-34,.cls-35,.cls-4,.cls-8{stroke:#5b869a;}.cls-1,.cls-10,.cls-13,.cls-15,.cls-16,.cls-17,.cls-18,.cls-19,.cls-2,.cls-20,.cls-21,.cls-22,.cls-23,.cls-24,.cls-25,.cls-26,.cls-27,.cls-28,.cls-29,.cls-30,.cls-31,.cls-32,.cls-34,.cls-35,.cls-4,.cls-5,.cls-6,.cls-7,.cls-8{stroke-miterlimit:10;}.cls-1,.cls-13,.cls-2,.cls-21,.cls-22,.cls-24,.cls-25,.cls-26,.cls-28,.cls-29,.cls-30,.cls-32,.cls-34,.cls-35,.cls-4{stroke-width:4px;}.cls-17,.cls-2,.cls-5,.cls-7{fill:none;}.cls-3,.cls-30,.cls-6{fill:#d1f0fb;}.cls-4{fill:#fcfeff;}.cls-5,.cls-6{stroke:#fafcfc;}.cls-15,.cls-16,.cls-17,.cls-19,.cls-20,.cls-27,.cls-31,.cls-5,.cls-6,.cls-7,.cls-8{stroke-width:5px;}.cls-7{stroke:#fff;}.cls-26,.cls-8{fill:#e3ebf8;}.cls-9{fill:#8de4f9;}.cls-10,.cls-18,.cls-23{stroke-width:3px;}.cls-11{fill:#e4bd90;}.cls-12,.cls-13{fill:#f4a693;}.cls-14{font-size:16px;fill:#f2f2f2;font-family:Silom;}.cls-15{fill:#f8d29d;}.cls-18{fill:#bbcbe2;}.cls-19,.cls-22,.cls-33{fill:#f7d19c;}.cls-20{fill:#f6d2a0;}.cls-21{fill:#e6bd8f;}.cls-23{fill:#d1f0fd;}.cls-24{fill:#e4bd95;}.cls-25{fill:#adf9a5;}.cls-27{fill:#e5bd91;}.cls-28{fill:#fafeff;}.cls-29{fill:#e6bd92;}.cls-31,.cls-36{fill:#f5a695;}.cls-32{fill:#f5a594;}.cls-34{fill:#f2de9e;}.cls-35{fill:#d9f2fe;}</style></defs><g id="Layer_1" data-name="Layer 1"><polyline class="cls-1" points="412.64 714 412.64 743 540.5 743 540.5 714 540.5 714 412.64 714"/><circle class="cls-2" cx="442" cy="873.5" r="7.5"/><circle class="cls-2" cx="512" cy="872.5" r="7.5"/></g><g id="background"><rect class="cls-3" x="3.5" width="1920" height="1080"/><rect class="cls-4" x="412.5" y="714" width="128" height="28"/><rect class="cls-3" x="441.5" y="771" width="70" height="116"/></g><g id="cloud"><line class="cls-3" x1="103.5" y1="293.5" x2="126.5" y2="293.5"/><line class="cls-5" x1="103.5" y1="293.5" x2="126.5" y2="293.5"/><line class="cls-3" x1="141.5" y1="293.5" x2="177.5" y2="293.5"/><line class="cls-5" x1="141.5" y1="293.5" x2="177.5" y2="293.5"/><path class="cls-6" d="M173.5,293.5s-2-20,16-27a47.53,47.53,0,0,1,5.12-13.88c2.31-4.1,10.21-18.16,25.88-21.12a34.66,34.66,0,0,1,21,3,40.73,40.73,0,0,1,11.5,9.38,41.93,41.93,0,0,1,9.5,22.62c1.4.25,11.26,2.17,16.49,11.49a23.45,23.45,0,0,1,2.51,15.51" transform="translate(1.5)"/><line class="cls-3" x1="280.5" y1="295.5" x2="316.5" y2="295.5"/><line class="cls-5" x1="280.5" y1="295.5" x2="316.5" y2="295.5"/><line class="cls-3" x1="325.5" y1="295.5" x2="420.5" y2="295.5"/><line class="cls-5" x1="325.5" y1="295.5" x2="420.5" y2="295.5"/><line class="cls-3" x1="872.5" y1="518.5" x2="1181.5" y2="518.5"/><line class="cls-5" x1="872.5" y1="518.5" x2="1181.5" y2="518.5"/><line class="cls-3" x1="1200.17" y1="518.56" x2="1233.5" y2="518.56"/><line class="cls-5" x1="1200.17" y1="518.56" x2="1233.5" y2="518.56"/><line class="cls-3" x1="1437.5" y1="330.5" x2="1480.5" y2="330.5"/><line class="cls-5" x1="1437.5" y1="330.5" x2="1480.5" y2="330.5"/><line class="cls-3" x1="1510.5" y1="330.5" x2="1575.5" y2="330.5"/><line class="cls-5" x1="1510.5" y1="330.5" x2="1575.5" y2="330.5"/><path class="cls-7" d="M1574.1,333s-2.91-29.74,23.31-40.15a71.38,71.38,0,0,1,7.47-20.63c3.36-6.1,14.88-27,37.7-31.42,13.32-2.57,24.63,1.61,30.59,4.46a59.68,59.68,0,0,1,16.76,13.95,63.11,63.11,0,0,1,13.84,33.64c2,.37,16.4,3.23,24,17.09a35.57,35.57,0,0,1,3.66,23.06" transform="translate(1.5)"/><line class="cls-3" x1="1732.5" y1="330.5" x2="1797.5" y2="330.5"/><line class="cls-5" x1="1732.5" y1="330.5" x2="1797.5" y2="330.5"/><polyline class="cls-8" points="1255 727.5 1255 712.5 1298 712.5 1298 727.22"/><path class="cls-9" d="M-1.5,1079s310-68,457-125c0,0,127-90,224-44,0,0,35,95,88,99,0,0,82-76,97-71,0,0,48,1,88,14s150,127,150,127Z" transform="translate(1.5)"/><path class="cls-9" d="M801.18,1077s310-68,457-125c0,0,127-90,224-44,0,0,35,95,88,99,0,0,82-76,97-71,0,0,48,1,88,14s150,127,150,127Z" transform="translate(1.5)"/><line class="cls-10" x1="943.5" y1="871" x2="943.5" y2="887"/><polyline class="cls-9" points="442 881 442 771 504.5 771 504.5 879 448 883"/></g><g id="Layer_11" data-name="Layer 11"><rect class="cls-11" x="1151" y="870.5" width="253" height="167"/></g><g id="Layer_13" data-name="Layer 13"><rect class="cls-12" x="346.5" y="642" width="27" height="226"/></g><g id="Layer_12" data-name="Layer 12"><line class="cls-13" x1="346.5" y1="664" x2="346.5" y2="851"/><line class="cls-13" x1="373.5" y1="664" x2="373.5" y2="851"/><path class="cls-13" d="M351.49,625.15s7-14,13,0a10.32,10.32,0,0,1,5,2c1.64,1.26,2.94,3.09,3,4.29a11.42,11.42,0,0,1,0,1.47c0,.52-.08.93-.11,1.14s-.08.52-.19,1a14.61,14.61,0,0,1-.71,2.33c-.19.48-.36.83-.51,1.15-.66,1.34-1.09,1.88-1.49,2.6a9.28,9.28,0,0,0-1,3,38.9,38.9,0,0,1,6,2c3.47,1.49,4.59,2.57,5,3a10.37,10.37,0,0,1,2,3,9.53,9.53,0,0,1,1.13,5.75,10.28,10.28,0,0,1-5.13,7.25,9.89,9.89,0,0,1-5,0,13,13,0,0,1-5-3,22.62,22.62,0,0,1-3-3" transform="translate(1.5)"/><path class="cls-13" d="M365.19,624.75s-7-14-13,0a10.35,10.35,0,0,0-5,2c-1.63,1.26-2.94,3.09-3,4.29a12.63,12.63,0,0,0,0,1.47c0,.52.09.93.12,1.14s.07.52.18,1a15.77,15.77,0,0,0,.71,2.33,12.32,12.32,0,0,0,.52,1.15c.66,1.34,1.09,1.88,1.48,2.6a9.28,9.28,0,0,1,1,3,39.28,39.28,0,0,0-6,2c-3.47,1.49-4.58,2.57-5,3a10.58,10.58,0,0,0-2,3,9.54,9.54,0,0,0-1.12,5.75,10.25,10.25,0,0,0,5.12,7.25,9.88,9.88,0,0,0,5,0,12.8,12.8,0,0,0,5-3,22,22,0,0,0,3-3" transform="translate(1.5)"/><text class="cls-14" transform="translate(354.52 689.24)">P<tspan x="0" y="19.2">A</tspan><tspan x="0" y="38.4">R</tspan><tspan x="0" y="57.6">A</tspan><tspan x="0" y="76.8">M</tspan><tspan x="0" y="96">O</tspan><tspan x="0" y="115.2">U</tspan><tspan x="0" y="134.4">N</tspan><tspan x="0" y="153.6">T</tspan></text><path class="cls-13" d="M366.4,884.68s-6.33,14.31-13,.61a10.26,10.26,0,0,1-5.09-1.77c-1.69-1.17-3.08-2.94-3.21-4.14,0-.09-.07-.69-.07-1.47,0-.52,0-.93.06-1.14s.06-.53.14-1a16,16,0,0,1,.6-2.36c.17-.49.32-.84.46-1.17.6-1.37,1-1.93,1.36-2.67a9.16,9.16,0,0,0,.86-3,39.17,39.17,0,0,1-6.08-1.71c-3.54-1.32-4.71-2.36-5.14-2.77a10.37,10.37,0,0,1-2.14-2.9,9.6,9.6,0,0,1-1.39-5.69,10.27,10.27,0,0,1,4.78-7.48,9.94,9.94,0,0,1,5-.24,12.8,12.8,0,0,1,5.14,2.77,23.12,23.12,0,0,1,3.14,2.85" transform="translate(1.5)"/><path class="cls-13" d="M352.74,885.72s7.64,13.65,13-.61a10.27,10.27,0,0,0,4.9-2.23c1.58-1.33,2.8-3.22,2.82-4.43,0-.08,0-.69-.08-1.47-.05-.51-.13-.91-.17-1.13s-.1-.51-.23-1a15.18,15.18,0,0,0-.82-2.29c-.21-.48-.4-.81-.57-1.12-.72-1.31-1.18-1.83-1.6-2.54a9.17,9.17,0,0,1-1.14-2.95,37.8,37.8,0,0,0,5.9-2.28c3.4-1.64,4.46-2.78,4.85-3.23a10.32,10.32,0,0,0,1.86-3.09,9.54,9.54,0,0,0,.86-5.79,10.28,10.28,0,0,0-5.46-7,10,10,0,0,0-5,.23A12.92,12.92,0,0,0,367,848a22.21,22.21,0,0,0-2.86,3.14" transform="translate(1.5)"/></g><g id="Layer_4" data-name="Layer 4"><polyline class="cls-15" points="1150.59 831.11 1009.65 831.11 991.65 859.3 1150.59 859.3 1150.59 859.3 918.65 859.3 918.65 901.3 1150.65 901.3"/><polyline class="cls-16" points="1406.98 861.1 1637.65 861.3 1637.65 901.3 1403.65 901.3"/><line class="cls-17" x1="1150.66" y1="901.3" x2="1150.66" y2="901.3"/><polyline class="cls-10" points="1150.59 859.3 918.65 859.3 918.65 901.3 1150.65 901.3 1150.65 901.3 1150.65 873.11"/><polyline class="cls-15" points="1406.98 829.59 1546.85 829.59 1564.71 857.78 1406.98 857.78 1406.98 857.78 1637.15 857.78 1637.15 899.78 1406.91 899.78"/><polyline class="cls-10" points="1403.73 857.69 1637.15 857.69 1637.15 899.69 1403.66 899.69 1403.66 899.69 1403.66 871.49"/><path class="cls-16" d="M1224.33,901.3h31a16.87,16.87,0,0,1,.37,3.25,12.84,12.84,0,0,1-.37,3.75,11.58,11.58,0,0,1-2,4,17,17,0,0,1-6,4c-3,1.19-5.52,1.11-9,1s-6.3-.23-9-2a11.44,11.44,0,0,1-2.86-2.65,12.12,12.12,0,0,1-2.14-5.35A16,16,0,0,1,1224.33,901.3Z" transform="translate(1.5)"/><path class="cls-16" d="M1231.31,917.3l-.48,101h15.51q.24-50.49.49-101a26.24,26.24,0,0,1-4.85,1,25.52,25.52,0,0,1-5.82,0A26.24,26.24,0,0,1,1231.31,917.3Z" transform="translate(1.5)"/><path class="cls-1" d="M1254.71,1036.88l-31-.15a22.67,22.67,0,0,1-.36-3.77,17.52,17.52,0,0,1,.4-4.36,14.1,14.1,0,0,1,2-4.63,17.21,17.21,0,0,1,6-4.61c3-1.36,5.51-1.26,9-1.12s6.29.3,9,2.37a12.15,12.15,0,0,1,2.84,3.1,15.34,15.34,0,0,1,2.11,6.21A21.88,21.88,0,0,1,1254.71,1036.88Z" transform="translate(1.5)"/><path class="cls-16" d="M1296.69,901.3h31a16.87,16.87,0,0,1,.37,3.25,12.84,12.84,0,0,1-.37,3.75,11.4,11.4,0,0,1-2,4,17,17,0,0,1-6,4c-3,1.19-5.51,1.11-9,1s-6.3-.23-9-2a11.44,11.44,0,0,1-2.86-2.65,12.12,12.12,0,0,1-2.14-5.35A16,16,0,0,1,1296.69,901.3Z" transform="translate(1.5)"/><path class="cls-16" d="M1303.67,917.3l-.48,101h15.51q.25-50.49.49-101a26.24,26.24,0,0,1-4.85,1,25.52,25.52,0,0,1-5.82,0A26.24,26.24,0,0,1,1303.67,917.3Z" transform="translate(1.5)"/><path class="cls-1" d="M1327.07,1036.88l-31-.15a22.81,22.81,0,0,1-.36-3.78,17.41,17.41,0,0,1,.4-4.35,14.32,14.32,0,0,1,2-4.63,17.31,17.31,0,0,1,6-4.61c3-1.36,5.51-1.26,9-1.12s6.29.3,9,2.37a12.34,12.34,0,0,1,2.84,3.09,15.42,15.42,0,0,1,2.11,6.22A21.59,21.59,0,0,1,1327.07,1036.88Z" transform="translate(1.5)"/><path class="cls-16" d="M1379.44,917.3q-.26,50.51-.49,101h15.52l.48-101a26.06,26.06,0,0,1-4.85,1,25.43,25.43,0,0,1-5.81,0A25.89,25.89,0,0,1,1379.44,917.3Z" transform="translate(1.5)"/><rect class="cls-18" x="1188.66" y="938.3" width="26.5" height="98.5"/><rect class="cls-18" x="1263.4" y="938.38" width="26.5" height="98.42"/><rect class="cls-18" x="1339.48" y="938.12" width="26.5" height="97.69"/><polyline class="cls-10" points="1150.59 873.11 1150.59 901.11 1403.98 901.11 1403.98 873.11"/><polygon class="cls-8" points="1145.98 786.11 1145.98 806.11 1226.07 806.11 1251.02 786.11 1251.02 786.11 1145.98 786.11"/><path class="cls-8" d="M1301.16,785.3l104.32.81v20h-79" transform="translate(1.5)"/><path class="cls-8" d="M1388.16,782.83c-1.11-1.83-2.33-3.74-3.7-5.69-1-1.37-1.91-2.66-2.86-3.89,0,0-1.9-2.45-3.95-4.79-16.46-18.75-36.88-28-50.58-32.63a153.88,153.88,0,0,0-15.08-4.41c-48.62-11.57-86.92,4.41-86.92,4.41a133.45,133.45,0,0,0-45.3,30A144.48,144.48,0,0,0,1166.42,782l-1.26,1.85" transform="translate(1.5)"/><polyline class="cls-19" points="1152.48 865.09 1152.48 865.09 1152.48 806.11 1222.6 806.11 1152.48 865.09"/><polyline class="cls-20" points="1405.48 867.61 1405.48 867.61 1405.48 806.11 1332.6 806.11 1405.48 867.61"/><polygon class="cls-8" points="1277.22 765.11 1142.48 873.11 1410.98 873.11 1277.22 765.11"/><rect class="cls-21" x="917" y="901.5" width="67" height="175"/><rect class="cls-22" x="983" y="901.5" width="67" height="175"/><rect class="cls-22" x="1049.6" y="901.07" width="106.5" height="175"/><rect class="cls-22" x="1502" y="901.5" width="67" height="175"/></g><g id="Layer_5" data-name="Layer 5"><path class="cls-16" d="M1155.83,918.5l-.48,101h15.51q.26-50.5.49-101a27.09,27.09,0,0,1-4.85,1,26.73,26.73,0,0,1-5.82,0A27.09,27.09,0,0,1,1155.83,918.5Z" transform="translate(1.5)"/><path class="cls-16" d="M1149.07,903.5h31a17.48,17.48,0,0,1,.38,3.25,13.26,13.26,0,0,1-.38,3.75,11.23,11.23,0,0,1-2,4,17.17,17.17,0,0,1-6,4c-3,1.19-5.51,1.11-9,1s-6.29-.23-9-2a11.11,11.11,0,0,1-2.85-2.66,12.08,12.08,0,0,1-2.15-5.34A16,16,0,0,1,1149.07,903.5Z" transform="translate(1.5)"/><path class="cls-1" d="M1177.68,1037l-30.35-.15a21.79,21.79,0,0,1-.35-3.77,17.93,17.93,0,0,1,.39-4.36,14.26,14.26,0,0,1,2-4.63,16.91,16.91,0,0,1,5.9-4.61c3-1.36,5.4-1.26,8.82-1.12s6.16.3,8.8,2.37a12.51,12.51,0,0,1,2.78,3.09,15.7,15.7,0,0,1,2.06,6.22A21.88,21.88,0,0,1,1177.68,1037Z" transform="translate(1.5)"/><rect class="cls-16" x="919.08" y="1037.47" width="61" height="38"/><rect class="cls-23" x="1003.08" y="1056.47" width="27" height="19"/><path class="cls-23" d="M937.58,949.47s11-23,24,0v86h-24Z" transform="translate(1.5)"/><rect class="cls-23" x="1003.08" y="941.47" width="27" height="102"/><rect class="cls-23" x="1091.08" y="941.47" width="27" height="102"/><rect class="cls-23" x="1091.13" y="1057.97" width="27" height="16.71"/><rect class="cls-24" x="1570.07" y="901.73" width="67" height="175"/><rect class="cls-22" x="1396.68" y="901.3" width="106.5" height="175"/><rect class="cls-16" x="1571.16" y="1037.7" width="65.34" height="38"/><rect class="cls-23" x="1523" y="1056.5" width="27" height="19"/><path class="cls-23" d="M1590.66,949.7s11-23,24,0v86h-24Z" transform="translate(1.5)"/><rect class="cls-23" x="1523" y="941.5" width="27" height="102"/><rect class="cls-23" x="1438.16" y="941.7" width="27" height="102"/><rect class="cls-23" x="1438.21" y="1058.2" width="27" height="16.71"/><path class="cls-16" d="M1367.76,901.5h31a16.77,16.77,0,0,1,.37,3.25,12.84,12.84,0,0,1-.37,3.75,11.58,11.58,0,0,1-2,4,17.27,17.27,0,0,1-6,4c-3,1.19-5.52,1.11-9,1s-6.3-.23-9-2a11.22,11.22,0,0,1-2.86-2.66,12,12,0,0,1-2.14-5.34A16,16,0,0,1,1367.76,901.5Z" transform="translate(1.5)"/><path class="cls-1" d="M1402.7,1037l-28.4-.15a24.42,24.42,0,0,1-.32-3.77,18.69,18.69,0,0,1,.37-4.35,14.73,14.73,0,0,1,1.85-4.63,16,16,0,0,1,5.52-4.61c2.79-1.37,5-1.27,8.25-1.12s5.76.29,8.23,2.36a12.21,12.21,0,0,1,2.6,3.09,16.56,16.56,0,0,1,1.93,6.21A23.53,23.53,0,0,1,1402.7,1037Z" transform="translate(1.5)"/><rect class="cls-16" x="1149.79" y="1037.82" width="253.84" height="38"/></g><g id="tree"><path class="cls-25" d="M796.5,838.5c.84-.86,13.82-13.66,31-9.78a32.94,32.94,0,0,1,19,12.78s10,19,3,44a37.34,37.34,0,0,1,21,12,29.93,29.93,0,0,1,6.62,11.25,29.2,29.2,0,0,1,1.38,7.75,25.14,25.14,0,0,1-3,16,24.78,24.78,0,0,1-9,9,87.62,87.62,0,0,1,0,28,39.29,39.29,0,0,1-22,30,66.66,66.66,0,0,1-43,3,43.17,43.17,0,0,1-28-29,111.46,111.46,0,0,1-2-41s-19-11-11-33c0,0,6-20,19-25a81.81,81.81,0,0,1,4.38-14.62A83.08,83.08,0,0,1,796.5,838.5Z" transform="translate(1.5)"/><line class="cls-16" x1="820" y1="869" x2="820" y2="1076"/><line class="cls-16" x1="820.57" y1="944.28" x2="842.57" y2="922.28"/><line class="cls-16" x1="819.32" y1="965.03" x2="793.82" y2="939.53"/><path class="cls-25" d="M818,1055a38.77,38.77,0,0,1,15.26-4.12A39.77,39.77,0,0,1,856.5,1057a24.74,24.74,0,0,1,12,19H818Z" transform="translate(1.5)"/><path class="cls-25" d="M779,1034.5s32.22,4,39,17v25H779Z" transform="translate(1.5)"/></g><g id="Layer_7" data-name="Layer 7"><polygon class="cls-26" points="478.5 658 406.5 714 548.5 714 478.5 658"/></g><g id="Layer_9" data-name="Layer 9"><rect class="cls-26" x="412.8" y="742.48" width="128" height="160.03"/><polyline class="cls-27" points="540.8 902.51 715.5 902.51 715.5 1031 541.24 1031 541.24 902.51"/><polyline class="cls-28" points="542.5 1028.92 542.5 1028.92 542.5 1076.92 716.5 1076.92 716.5 1028.92 542.5 1028.92"/><polyline class="cls-29" points="381.5 938 310.5 938 310.5 1079 408.5 1079 408.5 938 381.5 938"/><rect class="cls-30" x="344.5" y="970" width="24" height="30"/><rect class="cls-30" x="344.5" y="1025" width="24" height="30"/><rect class="cls-30" x="643.83" y="1045.41" width="30" height="33" transform="translate(-404.97 1715.25) rotate(-89.7)"/><rect class="cls-30" x="575.36" y="1045.62" width="30" height="33" transform="translate(-473.3 1646.99) rotate(-89.7)"/><rect class="cls-4" x="443.5" y="767" width="65" height="120"/><rect class="cls-31" x="458.5" y="780" width="35" height="101.39"/></g><g id="Layer_8" data-name="Layer 8"><circle class="cls-31" cx="567.71" cy="925.2" r="12.5"/><circle class="cls-31" cx="384.71" cy="925.2" r="12.5"/><path class="cls-31" d="M480.71,868.7h-16v9.75H448.46l-2.75,2.75h-19.5l-6.5,6.5v15h-38s-2,3,3,5c0,0,13.19,4.39,14,15.65a14.21,14.21,0,0,1,0,2.35c-1,13-12,15-12,15h88v-73" transform="translate(1.5)"/><path class="cls-31" d="M467,869h16.49v9.75h16.74l2.84,2.75h20.09l6.7,6.5v15H569s2.06,3-3.09,5c0,0-13.59,4.39-14.44,15.65a16.79,16.79,0,0,0,0,2.35c1,13,12.37,15,12.37,15H473.18V868" transform="translate(1.5)"/><polygon class="cls-32" points="388.5 938 388.5 996 562.5 996 562.5 936.96 388.5 938"/><rect class="cls-1" x="403.5" y="951" width="141" height="31"/><polyline class="cls-33" points="410.42 999.1 410.42 1079.1 540.24 1079.1 540.24 999.1 540.24 999.1 410.42 999.1"/><polyline class="cls-2" points="421.24 1000.1 434.24 1000.1 434.24 1012.1 421.24 1012.1 421.24 998.1"/><polyline class="cls-2" points="445.24 1000.1 458.24 1000.1 458.24 1012.1 445.24 1012.1 445.24 998.1"/><polyline class="cls-2" points="470.24 1000.1 483.24 1000.1 483.24 1012.1 470.24 1012.1 470.24 998.1"/><polyline class="cls-2" points="517.24 1000.1 530.24 1000.1 530.24 1012.1 517.24 1012.1 517.24 998.1"/><polyline class="cls-2" points="493.24 1000.1 506.24 1000.1 506.24 1012.1 493.24 1012.1 493.24 998.1"/><rect class="cls-34" x="440.24" y="1023.1" width="18" height="54"/><rect class="cls-34" x="458.24" y="1023.1" width="18" height="54"/><rect class="cls-34" x="476.24" y="1023.1" width="18" height="54"/><rect class="cls-34" x="494.24" y="1023.1" width="18" height="54"/><path class="cls-35" d="M595,943s9-10,17,0a14.54,14.54,0,0,1,5,8v50H590V950A30.83,30.83,0,0,1,595,943Z" transform="translate(1.5)"/><path class="cls-35" d="M650,943s9-10,17,0a14.54,14.54,0,0,1,5,8v50H645V950A30.83,30.83,0,0,1,650,943Z" transform="translate(1.5)"/><line class="cls-31" x1="421" y1="966.5" x2="442" y2="966.5"/><line class="cls-31" x1="453.5" y1="966.5" x2="485.5" y2="966.5"/><line class="cls-31" x1="500.5" y1="966.5" x2="514.5" y2="966.5"/><line class="cls-31" x1="413" y1="742.5" x2="373.5" y2="742.5"/><line class="cls-31" x1="413.5" y1="795.5" x2="373.5" y2="795.5"/></g><g id="Layer_14" data-name="Layer 14"><rect class="cls-36" x="468" y="870.5" width="14" height="65"/><text class="cls-14" transform="translate(424.73 920.84)">PARAMOUNT</text></g></svg>